<svg width="400" height="500" xmlns="http://www.w3.org/2000/svg">
  <!-- Background -->
  <rect width="400" height="500" fill="#f8f9fa"/>
  
  <!-- Title -->
  <text x="200" y="30" font-family="Arial, sans-serif" font-size="18" font-weight="bold" text-anchor="middle" fill="#333">地域情報誌向けクロスワード（サンプル）</text>
  
  <!-- Grid (10x10) -->
  <g transform="translate(50, 60)">
    <!-- White cells -->
    <rect x="0" y="0" width="30" height="30" fill="white" stroke="#333" stroke-width="1"/>
    <rect x="30" y="0" width="30" height="30" fill="white" stroke="#333" stroke-width="1"/>
    <rect x="60" y="0" width="30" height="30" fill="white" stroke="#333" stroke-width="1"/>
    <rect x="90" y="0" width="30" height="30" fill="#333" stroke="#333" stroke-width="1"/>
    <rect x="120" y="0" width="30" height="30" fill="white" stroke="#333" stroke-width="1"/>
    <rect x="150" y="0" width="30" height="30" fill="white" stroke="#333" stroke-width="1"/>
    <rect x="180" y="0" width="30" height="30" fill="white" stroke="#333" stroke-width="1"/>
    <rect x="210" y="0" width="30" height="30" fill="white" stroke="#333" stroke-width="1"/>
    <rect x="240" y="0" width="30" height="30" fill="white" stroke="#333" stroke-width="1"/>
    <rect x="270" y="0" width="30" height="30" fill="#333" stroke="#333" stroke-width="1"/>
    
    <rect x="0" y="30" width="30" height="30" fill="white" stroke="#333" stroke-width="1"/>
    <rect x="30" y="30" width="30" height="30" fill="#333" stroke="#333" stroke-width="1"/>
    <rect x="60" y="30" width="30" height="30" fill="white" stroke="#333" stroke-width="1"/>
    <rect x="90" y="30" width="30" height="30" fill="#333" stroke="#333" stroke-width="1"/>
    <rect x="120" y="30" width="30" height="30" fill="white" stroke="#333" stroke-width="1"/>
    <rect x="150" y="30" width="30" height="30" fill="white" stroke="#333" stroke-width="1"/>
    <rect x="180" y="30" width="30" height="30" fill="white" stroke="#333" stroke-width="1"/>
    <rect x="210" y="30" width="30" height="30" fill="#333" stroke="#333" stroke-width="1"/>
    <rect x="240" y="30" width="30" height="30" fill="white" stroke="#333" stroke-width="1"/>
    <rect x="270" y="30" width="30" height="30" fill="white" stroke="#333" stroke-width="1"/>
    
    <rect x="0" y="60" width="30" height="30" fill="white" stroke="#333" stroke-width="1"/>
    <rect x="30" y="60" width="30" height="30" fill="white" stroke="#333" stroke-width="1"/>
    <rect x="60" y="60" width="30" height="30" fill="white" stroke="#333" stroke-width="1"/>
    <rect x="90" y="60" width="30" height="30" fill="white" stroke="#333" stroke-width="1"/>
    <rect x="120" y="60" width="30" height="30" fill="white" stroke="#333" stroke-width="1"/>
    <rect x="150" y="60" width="30" height="30" fill="#333" stroke="#333" stroke-width="1"/>
    <rect x="180" y="60" width="30" height="30" fill="white" stroke="#333" stroke-width="1"/>
    <rect x="210" y="60" width="30" height="30" fill="white" stroke="#333" stroke-width="1"/>
    <rect x="240" y="60" width="30" height="30" fill="white" stroke="#333" stroke-width="1"/>
    <rect x="270" y="60" width="30" height="30" fill="white" stroke="#333" stroke-width="1"/>
    
    <rect x="0" y="90" width="30" height="30" fill="#333" stroke="#333" stroke-width="1"/>
    <rect x="30" y="90" width="30" height="30" fill="white" stroke="#333" stroke-width="1"/>
    <rect x="60" y="90" width="30" height="30" fill="#333" stroke="#333" stroke-width="1"/>
    <rect x="90" y="90" width="30" height="30" fill="white" stroke="#333" stroke-width="1"/>
    <rect x="120" y="90" width="30" height="30" fill="#333" stroke="#333" stroke-width="1"/>
    <rect x="150" y="90" width="30" height="30" fill="#333" stroke="#333" stroke-width="1"/>
    <rect x="180" y="90" width="30" height="30" fill="white" stroke="#333" stroke-width="1"/>
    <rect x="210" y="90" width="30" height="30" fill="white" stroke="#333" stroke-width="1"/>
    <rect x="240" y="90" width="30" height="30" fill="#333" stroke="#333" stroke-width="1"/>
    <rect x="270" y="90" width="30" height="30" fill="white" stroke="#333" stroke-width="1"/>
    
    <rect x="0" y="120" width="30" height="30" fill="white" stroke="#333" stroke-width="1"/>
    <rect x="30" y="120" width="30" height="30" fill="white" stroke="#333" stroke-width="1"/>
    <rect x="60" y="120" width="30" height="30" fill="white" stroke="#333" stroke-width="1"/>
    <rect x="90" y="120" width="30" height="30" fill="white" stroke="#333" stroke-width="1"/>
    <rect x="120" y="120" width="30" height="30" fill="white" stroke="#333" stroke-width="1"/>
    <rect x="150" y="120" width="30" height="30" fill="white" stroke="#333" stroke-width="1"/>
    <rect x="180" y="120" width="30" height="30" fill="white" stroke="#333" stroke-width="1"/>
    <rect x="210" y="120" width="30" height="30" fill="white" stroke="#333" stroke-width="1"/>
    <rect x="240" y="120" width="30" height="30" fill="white" stroke="#333" stroke-width="1"/>
    <rect x="270" y="120" width="30" height="30" fill="#333" stroke="#333" stroke-width="1"/>
    
    <rect x="0" y="150" width="30" height="30" fill="white" stroke="#333" stroke-width="1"/>
    <rect x="30" y="150" width="30" height="30" fill="white" stroke="#333" stroke-width="1"/>
    <rect x="60" y="150" width="30" height="30" fill="#333" stroke="#333" stroke-width="1"/>
    <rect x="90" y="150" width="30" height="30" fill="white" stroke="#333" stroke-width="1"/>
    <rect x="120" y="150" width="30" height="30" fill="#333" stroke="#333" stroke-width="1"/>
    <rect x="150" y="150" width="30" height="30" fill="white" stroke="#333" stroke-width="1"/>
    <rect x="180" y="150" width="30" height="30" fill="white" stroke="#333" stroke-width="1"/>
    <rect x="210" y="150" width="30" height="30" fill="#333" stroke="#333" stroke-width="1"/>
    <rect x="240" y="150" width="30" height="30" fill="white" stroke="#333" stroke-width="1"/>
    <rect x="270" y="150" width="30" height="30" fill="white" stroke="#333" stroke-width="1"/>
    
    <rect x="0" y="180" width="30" height="30" fill="white" stroke="#333" stroke-width="1"/>
    <rect x="30" y="180" width="30" height="30" fill="#333" stroke="#333" stroke-width="1"/>
    <rect x="60" y="180" width="30" height="30" fill="white" stroke="#333" stroke-width="1"/>
    <rect x="90" y="180" width="30" height="30" fill="white" stroke="#333" stroke-width="1"/>
    <rect x="120" y="180" width="30" height="30" fill="white" stroke="#333" stroke-width="1"/>
    <rect x="150" y="180" width="30" height="30" fill="white" stroke="#333" stroke-width="1"/>
    <rect x="180" y="180" width="30" height="30" fill="white" stroke="#333" stroke-width="1"/>
    <rect x="210" y="180" width="30" height="30" fill="white" stroke="#333" stroke-width="1"/>
    <rect x="240" y="180" width="30" height="30" fill="#333" stroke="#333" stroke-width="1"/>
    <rect x="270" y="180" width="30" height="30" fill="white" stroke="#333" stroke-width="1"/>
    
    <rect x="0" y="210" width="30" height="30" fill="#333" stroke="#333" stroke-width="1"/>
    <rect x="30" y="210" width="30" height="30" fill="white" stroke="#333" stroke-width="1"/>
    <rect x="60" y="210" width="30" height="30" fill="white" stroke="#333" stroke-width="1"/>
    <rect x="90" y="210" width="30" height="30" fill="#333" stroke="#333" stroke-width="1"/>
    <rect x="120" y="210" width="30" height="30" fill="white" stroke="#333" stroke-width="1"/>
    <rect x="150" y="210" width="30" height="30" fill="white" stroke="#333" stroke-width="1"/>
    <rect x="180" y="210" width="30" height="30" fill="#333" stroke="#333" stroke-width="1"/>
    <rect x="210" y="210" width="30" height="30" fill="white" stroke="#333" stroke-width="1"/>
    <rect x="240" y="210" width="30" height="30" fill="white" stroke="#333" stroke-width="1"/>
    <rect x="270" y="210" width="30" height="30" fill="white" stroke="#333" stroke-width="1"/>
    
    <rect x="0" y="240" width="30" height="30" fill="white" stroke="#333" stroke-width="1"/>
    <rect x="30" y="240" width="30" height="30" fill="white" stroke="#333" stroke-width="1"/>
    <rect x="60" y="240" width="30" height="30" fill="white" stroke="#333" stroke-width="1"/>
    <rect x="90" y="240" width="30" height="30" fill="white" stroke="#333" stroke-width="1"/>
    <rect x="120" y="240" width="30" height="30" fill="white" stroke="#333" stroke-width="1"/>
    <rect x="150" y="240" width="30" height="30" fill="white" stroke="#333" stroke-width="1"/>
    <rect x="180" y="240" width="30" height="30" fill="white" stroke="#333" stroke-width="1"/>
    <rect x="210" y="240" width="30" height="30" fill="white" stroke="#333" stroke-width="1"/>
    <rect x="240" y="240" width="30" height="30" fill="white" stroke="#333" stroke-width="1"/>
    <rect x="270" y="240" width="30" height="30" fill="white" stroke="#333" stroke-width="1"/>
    
    <rect x="0" y="270" width="30" height="30" fill="white" stroke="#333" stroke-width="1"/>
    <rect x="30" y="270" width="30" height="30" fill="#333" stroke="#333" stroke-width="1"/>
    <rect x="60" y="270" width="30" height="30" fill="white" stroke="#333" stroke-width="1"/>
    <rect x="90" y="270" width="30" height="30" fill="white" stroke="#333" stroke-width="1"/>
    <rect x="120" y="270" width="30" height="30" fill="#333" stroke="#333" stroke-width="1"/>
    <rect x="150" y="270" width="30" height="30" fill="white" stroke="#333" stroke-width="1"/>
    <rect x="180" y="270" width="30" height="30" fill="white" stroke="#333" stroke-width="1"/>
    <rect x="210" y="270" width="30" height="30" fill="white" stroke="#333" stroke-width="1"/>
    <rect x="240" y="270" width="30" height="30" fill="#333" stroke="#333" stroke-width="1"/>
    <rect x="270" y="270" width="30" height="30" fill="white" stroke="#333" stroke-width="1"/>
    
    <!-- Numbers -->
    <text x="5" y="15" font-family="Arial, sans-serif" font-size="10" fill="#333">1</text>
    <text x="35" y="15" font-family="Arial, sans-serif" font-size="10" fill="#333">2</text>
    <text x="125" y="15" font-family="Arial, sans-serif" font-size="10" fill="#333">3</text>
    <text x="5" y="45" font-family="Arial, sans-serif" font-size="10" fill="#333">4</text>
    <text x="65" y="45" font-family="Arial, sans-serif" font-size="10" fill="#333">5</text>
    <text x="5" y="75" font-family="Arial, sans-serif" font-size="10" fill="#333">6</text>
    <text x="35" y="105" font-family="Arial, sans-serif" font-size="10" fill="#333">7</text>
    <text x="5" y="135" font-family="Arial, sans-serif" font-size="10" fill="#333">8</text>
    <text x="5" y="165" font-family="Arial, sans-serif" font-size="10" fill="#333">9</text>
    <text x="35" y="225" font-family="Arial, sans-serif" font-size="10" fill="#333">10</text>
  </g>
  
  <!-- Clues -->
  <text x="20" y="390" font-family="Arial, sans-serif" font-size="12" font-weight="bold" fill="#333">ヨコのカギ：</text>
  <text x="20" y="410" font-family="Arial, sans-serif" font-size="11" fill="#555">1. 日本三大祭りの一つ、京都の○○祭</text>
  <text x="20" y="425" font-family="Arial, sans-serif" font-size="11" fill="#555">4. 関西地方の古都</text>
  <text x="20" y="440" font-family="Arial, sans-serif" font-size="11" fill="#555">6. 紅葉の名所、○○寺</text>
  
  <text x="20" y="465" font-family="Arial, sans-serif" font-size="12" font-weight="bold" fill="#333">タテのカギ：</text>
  <text x="20" y="485" font-family="Arial, sans-serif" font-size="11" fill="#555">1. 京都の代表的な食べ物</text>
</svg>
